# xmcd CD database file
#
# Track frame offsets:
#	150
#	21280
#	44985
#	64365
#	87592
#	109850
#	133710
#	154550
#	175597
#	195165
#
# Disc length: 2908 seconds
#
# Revision: 0
# Processed by: cddbd v1.5.1PL2 Copyright (c) Steve Scherf et al.
# Submitted via: CDex 1.51
#
DISCID=870b5a0a
DTITLE=The Ventures - SAY YES
DYEAR=1992
DGENRE=Instrumental Rock
TTITLE0=SAY YES
TTITLE1=僕はこの瞳で嘘をつく
TTITLE2=はじまりはいつも雨
TTITLE3=太陽と埃の中で
TTITLE4=DO YA DO
TTITLE5=LOVE SONG
TTITLE6=恋人はワイン色
TTITLE7=ロマンシング・ヤード
TTITLE8=モーニング・ムーン
TTITLE9=MOON LIGHT BLUES
EXTD=YEAR: 1992
EXTT0=
EXTT1=
EXTT2=
EXTT3=
EXTT4=
EXTT5=
EXTT6=
EXTT7=
EXTT8=
EXTT9=
PLAYORDER=
